# xmcd
#
# Track frame offsets: 
#        150
#        15474
#        27286
#        44289
#        61999
#        76857
#        91242
#        102039
#        117777
#        135213
#        152085
#        165408
#        185247
#
# Disc length: 2680 seconds
#
# Revision: 0
# Processed by: cddbd v1.5.2PL0 Copyright (c) Steve Scherf et al.
# Submitted via: ExactAudioCopy v0.99pb4
#
DISCID=900a760d
DTITLE=Ronnie McDowell - If I could paint the way I feel
DYEAR=1900
DGENRE=Country
TTITLE0=The way I feel
TTITLE1=Jesus loves me
TTITLE2=When Ben smiles
TTITLE3=When Ben smiles (Landri Taylor)
TTITLE4=Just a closer walk with thee
TTITLE5=I could see Jesus in you
TTITLE6=I gotta friend in higher places
TTITLE7=Ain't it amazing
TTITLE8=Safely in the arms of Jesus
TTITLE9=Take my hand precious Lord
TTITLE10=This much
TTITLE11=The way I feel (Landri Taylor)
TTITLE12=Red, white and blue christmas
EXTD=
EXTT0=
EXTT1=
EXTT2=
EXTT3=
EXTT4=
EXTT5=
EXTT6=
EXTT7=
EXTT8=
EXTT9=
EXTT10=
EXTT11=
EXTT12=
PLAYORDER=
